<svg width="140" height="44" viewBox="0 0 140 44" fill="none" xmlns="http://www.w3.org/2000/svg">
<g clip-path="url(#clip0_1768_2072)">
<path d="M9.00795 10.9498L4.76423 8.98408L0.520508 7V11.6663L4.76423 13.6503L8.67727 15.4691L9.00795 15.616V32.4072H0.520508V36.6509H13.2333V12.9155L9.6142 11.2437L9.00795 10.9498Z" fill="#2B67E3"/>
<path d="M21.7019 10.9498L21.0957 11.2437L17.4766 12.9155V36.6509H30.171V32.4072H21.7019V15.616L22.0326 15.4691L25.9456 13.6503L30.171 11.6663V7L25.9456 8.98408L21.7019 10.9498Z" fill="#2B67E3"/>
<path d="M42.6454 11.7729H40.0918V32.7895H52.4188V30.5298H42.6454V11.7729Z" fill="#2B67E3"/>
<path d="M64.3779 20.6362H55.1924V22.8959H64.3779V20.6362Z" fill="#2B67E3"/>
<path d="M67.1709 14.0326H73.7845V32.7895H76.3197V14.0326H82.9333V11.7729H67.1709V14.0326Z" fill="#2B67E3"/>
<path d="M88.7567 23.4019H98.2362V21.1422H88.7567V14.0326H98.8975V11.7729H86.2031V32.7895H99.0629V30.5298H88.7567V23.4019Z" fill="#2B67E3"/>
<path d="M107.826 14.416C108.855 13.773 110.012 13.4423 111.28 13.4423C111.978 13.4423 112.639 13.5342 113.282 13.7363C113.925 13.92 114.513 14.2139 115.046 14.5997C115.578 14.9855 116.019 15.4448 116.405 15.9959C116.772 16.547 117.048 17.19 117.195 17.9249H119.749C119.565 16.841 119.216 15.8857 118.701 15.0406C118.187 14.1955 117.562 13.4791 116.809 12.8912C116.056 12.3033 115.211 11.844 114.274 11.5501C113.337 11.2378 112.345 11.0908 111.28 11.0908C109.479 11.0908 107.899 11.5317 106.503 12.3952C105.107 13.277 104.005 14.5078 103.215 16.1245C102.406 17.7412 102.021 19.6518 102.021 21.8747C102.021 24.0976 102.425 26.0081 103.215 27.6248C104.023 29.2415 105.107 30.4907 106.503 31.3541C107.899 32.2359 109.498 32.6769 111.28 32.6769C112.345 32.6769 113.337 32.5299 114.274 32.2176C115.211 31.9053 116.056 31.4644 116.809 30.8765C117.562 30.2886 118.187 29.5721 118.701 28.7087C119.216 27.8636 119.565 26.9083 119.749 25.8244H117.195C117.048 26.5409 116.791 27.1839 116.405 27.7534C116.038 28.3045 115.578 28.7822 115.046 29.168C114.513 29.5538 113.925 29.8293 113.282 30.0314C112.639 30.2151 111.978 30.3254 111.28 30.3254C110.012 30.3254 108.855 29.9947 107.826 29.3517C106.797 28.7087 105.97 27.7534 105.382 26.5042C104.776 25.2549 104.482 23.7118 104.482 21.893C104.482 20.0743 104.776 18.5311 105.382 17.2819C105.989 15.9959 106.797 15.059 107.826 14.416Z" fill="#2B67E3"/>
<path d="M136.926 11.7729V21.1422H125.72V11.7729H123.185V32.7895H125.72V23.4019H136.926V32.7895H139.48V11.7729H136.926Z" fill="#2B67E3"/>
</g>
<defs>
<clipPath id="clip0_1768_2072">
<rect width="140" height="30" fill="white" transform="translate(0 7)"/>
</clipPath>
</defs>
</svg>
