<svg width="25" height="25" viewBox="0 0 25 25" fill="none" xmlns="http://www.w3.org/2000/svg">
<path fill-rule="evenodd" clip-rule="evenodd" d="M13.5 20.4979L19.1852 13.9912C19.4577 13.6793 19.9315 13.6474 20.2435 13.9199C20.5554 14.1925 20.5873 14.6663 20.3148 14.9782L13.3247 22.9782C13.3229 22.9803 13.3211 22.9823 13.3193 22.9843C13.1818 23.1446 12.9777 23.2461 12.75 23.2461C12.471 23.2461 12.2277 23.0938 12.0984 22.8678L5.18591 14.979C4.91292 14.6675 4.94418 14.1936 5.25571 13.9206C5.56725 13.6477 6.04109 13.6789 6.31407 13.9905L12 20.4794L12 2.75012C12 2.33591 12.3358 2.00012 12.75 2.00012C13.1642 2.00012 13.5 2.33591 13.5 2.75012L13.5 20.4979Z" fill="#919EAB"/>
</svg>
