<svg width="20" height="20" viewBox="0 0 20 20" fill="none" xmlns="http://www.w3.org/2000/svg">
<path fill-rule="evenodd" clip-rule="evenodd" d="M13.6 8.13595C13.2879 7.82578 12.784 7.82578 12.472 8.13595L9.59996 10.968L6.76796 8.13595C6.45593 7.82578 5.95199 7.82578 5.63996 8.13595C5.48851 8.28617 5.40332 8.49064 5.40332 8.70395C5.40332 8.91726 5.48851 9.12174 5.63996 9.27195L9.03196 12.664C9.18217 12.8154 9.38665 12.9006 9.59996 12.9006C9.81327 12.9006 10.0177 12.8154 10.168 12.664L13.6 9.27195C13.7514 9.12174 13.8366 8.91726 13.8366 8.70395C13.8366 8.49064 13.7514 8.28617 13.6 8.13595Z" fill="#919EAB"/>
</svg>
