<svg width="26" height="26" viewBox="0 0 26 26" fill="none" xmlns="http://www.w3.org/2000/svg">
<path fill-rule="evenodd" clip-rule="evenodd" d="M10.5768 8.31996C10.1736 8.7256 10.1736 9.38072 10.5768 9.78636L14.2584 13.52L10.5768 17.2016C10.1736 17.6072 10.1736 18.2623 10.5768 18.668C10.7721 18.8648 11.0379 18.9756 11.3152 18.9756C11.5925 18.9756 11.8584 18.8648 12.0536 18.668L16.4632 14.2584C16.6601 14.0631 16.7709 13.7973 16.7709 13.52C16.7709 13.2427 16.6601 12.9768 16.4632 12.7816L12.0536 8.31996C11.8584 8.12307 11.5925 8.01233 11.3152 8.01233C11.0379 8.01233 10.7721 8.12307 10.5768 8.31996Z" fill="#212B36"/>
</svg>
