<svg width="20" height="20" viewBox="0 0 20 20" fill="none" xmlns="http://www.w3.org/2000/svg">
<path fill-rule="evenodd" clip-rule="evenodd" d="M17.4756 1.6001H2.52361C2.0133 1.6001 1.59961 2.01379 1.59961 2.5241V17.4761C1.59961 17.7212 1.69696 17.9562 1.87024 18.1295C2.04353 18.3027 2.27855 18.4001 2.52361 18.4001H10.5708V11.8901H8.38681V9.3701H10.5708V7.4801C10.4792 6.5819 10.7893 5.68915 11.4179 5.04108C12.0465 4.39302 12.9294 4.05591 13.83 4.1201C14.4838 4.11607 15.1373 4.14973 15.7872 4.2209V6.4889H14.4516C13.3932 6.4889 13.1916 6.9929 13.1916 7.7237V9.3449H15.7116L15.384 11.8649H13.1916V18.4001H17.4756C17.7207 18.4001 17.9557 18.3027 18.129 18.1295C18.3023 17.9562 18.3996 17.7212 18.3996 17.4761V2.5241C18.3996 2.27904 18.3023 2.04401 18.129 1.87073C17.9557 1.69745 17.7207 1.6001 17.4756 1.6001Z" fill="#919EAB"/>
</svg>
