<svg width="20" height="20" viewBox="0 0 20 20" fill="none" xmlns="http://www.w3.org/2000/svg">
<path fill-rule="evenodd" clip-rule="evenodd" d="M14.4852 4.5065C14.0775 4.5065 13.71 4.75209 13.5539 5.12875C13.3979 5.50542 13.4842 5.93897 13.7725 6.22726C14.0607 6.51555 14.4943 6.60179 14.871 6.44577C15.2476 6.28975 15.4932 5.92219 15.4932 5.5145C15.4932 4.95779 15.0419 4.5065 14.4852 4.5065ZM18.3492 6.5393C18.3329 5.84235 18.2023 5.1528 17.9628 4.4981C17.7492 3.93793 17.4168 3.43069 16.9884 3.0113C16.5725 2.58074 16.064 2.25041 15.5016 2.0453C14.8486 1.79847 14.1583 1.66495 13.4604 1.6505C12.57 1.6001 12.2844 1.6001 9.99961 1.6001C7.71481 1.6001 7.42921 1.6001 6.53881 1.6505C5.8409 1.66495 5.15058 1.79847 4.49761 2.0453C3.93622 2.25248 3.42823 2.58253 3.01081 3.0113C2.58025 3.42725 2.24992 3.93567 2.04481 4.4981C1.79798 5.15107 1.66447 5.84139 1.65001 6.5393C1.59961 7.4297 1.59961 7.7153 1.59961 10.0001C1.59961 12.2849 1.59961 12.5705 1.65001 13.4609C1.66447 14.1588 1.79798 14.8491 2.04481 15.5021C2.24992 16.0645 2.58025 16.5729 3.01081 16.9889C3.42823 17.4177 3.93622 17.7477 4.49761 17.9549C5.15058 18.2017 5.8409 18.3352 6.53881 18.3497C7.42921 18.4001 7.71481 18.4001 9.99961 18.4001C12.2844 18.4001 12.57 18.4001 13.4604 18.3497C14.1583 18.3352 14.8486 18.2017 15.5016 17.9549C16.064 17.7498 16.5725 17.4195 16.9884 16.9889C17.4187 16.5711 17.7514 16.0634 17.9628 15.5021C18.2023 14.8474 18.3329 14.1578 18.3492 13.4609C18.3492 12.5705 18.3996 12.2849 18.3996 10.0001C18.3996 7.7153 18.3996 7.4297 18.3492 6.5393ZM16.8372 13.3601C16.8311 13.8933 16.7345 14.4216 16.5516 14.9225C16.4175 15.2881 16.2021 15.6184 15.9216 15.8885C15.6491 16.1661 15.3195 16.3811 14.9556 16.5185C14.4547 16.7014 13.9264 16.798 13.3932 16.8041C12.5532 16.8461 12.2424 16.8545 10.0332 16.8545C7.82401 16.8545 7.51321 16.8545 6.67321 16.8041C6.11955 16.8145 5.56827 16.7292 5.04361 16.5521C4.69566 16.4077 4.38115 16.1932 4.11961 15.9221C3.8408 15.6522 3.62807 15.3217 3.49801 14.9561C3.29293 14.448 3.17918 13.9077 3.16201 13.3601C3.16201 12.5201 3.11161 12.2093 3.11161 10.0001C3.11161 7.7909 3.11161 7.4801 3.16201 6.6401C3.16577 6.09498 3.26528 5.55477 3.45601 5.0441C3.60389 4.68954 3.83087 4.37349 4.11961 4.1201C4.37481 3.83128 4.69021 3.6019 5.04361 3.4481C5.55563 3.26333 6.09528 3.16676 6.63961 3.1625C7.47961 3.1625 7.79041 3.1121 9.99961 3.1121C12.2088 3.1121 12.5196 3.1121 13.3596 3.1625C13.8928 3.16861 14.4211 3.26518 14.922 3.4481C15.3037 3.58977 15.6463 3.82009 15.9216 4.1201C16.1969 4.37813 16.412 4.69359 16.5516 5.0441C16.7383 5.5556 16.8349 6.09559 16.8372 6.6401C16.8792 7.4801 16.8876 7.7909 16.8876 10.0001C16.8876 12.2093 16.8792 12.5201 16.8372 13.3601ZM9.99961 5.6909C7.6208 5.69554 5.69572 7.62688 5.69881 10.0057C5.7019 12.3845 7.63199 14.3108 10.0108 14.3093C12.3896 14.3077 14.3172 12.3789 14.3172 10.0001C14.3195 8.85508 13.865 7.75644 13.0546 6.94758C12.2441 6.13872 11.1446 5.68642 9.99961 5.6909ZM9.9996 12.7973C8.45475 12.7973 7.2024 11.5449 7.2024 10.0001C7.2024 8.45525 8.45475 7.2029 9.9996 7.2029C11.5445 7.2029 12.7968 8.45525 12.7968 10.0001C12.7968 10.742 12.5021 11.4534 11.9775 11.978C11.4529 12.5026 10.7415 12.7973 9.9996 12.7973Z" fill="#919EAB"/>
</svg>
