<svg width="40" height="40" viewBox="0 0 40 40" fill="none" xmlns="http://www.w3.org/2000/svg">
<path fill-rule="evenodd" clip-rule="evenodd" d="M8.80019 3.2002H31.2002C34.293 3.2002 36.8002 5.7074 36.8002 8.8002V20.0002C36.8002 23.093 34.293 25.6002 31.2002 25.6002H8.80019C5.7074 25.6002 3.2002 23.093 3.2002 20.0002V8.8002C3.2002 5.7074 5.7074 3.2002 8.80019 3.2002ZM36.8002 24.8002V24.0002C36.8002 24.0002 35.5913 26.9289 31.2002 27.2002H8.80019C4.31511 26.869 3.2002 24.0002 3.2002 24.0002V24.8002C3.2002 27.893 5.7074 30.4002 8.80019 30.4002H31.2002C34.293 30.4002 36.8002 27.893 36.8002 24.8002ZM36.8002 29.6002V28.8002C36.8002 28.8002 35.5913 31.7289 31.2002 32.0002H8.80019C4.31511 31.669 3.2002 28.8002 3.2002 28.8002V29.6002C3.2002 32.693 5.7074 35.2002 8.80019 35.2002H31.2002C34.293 35.2002 36.8002 32.693 36.8002 29.6002ZM23.2002 9.6002H20.8002V8.8002C20.8002 8.35837 20.442 8.0002 20.0002 8.0002C19.5584 8.0002 19.2002 8.35837 19.2002 8.8002V9.6002H18.4225C17.097 9.6002 16.0225 10.6747 16.0225 12.0002V12.8014C16.0225 14.1269 17.097 15.2014 18.4225 15.2014H21.6002C22.042 15.2014 22.4002 15.5596 22.4002 16.0014V16.8002C22.4002 17.242 22.042 17.6002 21.6002 17.6002H17.6198C17.5869 17.1999 17.2578 16.8797 16.8468 16.8672C16.4052 16.8537 16.0363 17.2009 16.0229 17.6425L16.0006 18.3759C15.9869 18.827 16.3488 19.2002 16.8002 19.2002H19.2002V19.9862C19.2002 20.428 19.5584 20.7862 20.0002 20.7862C20.442 20.7862 20.8002 20.428 20.8002 19.9862V19.2002H21.6002C22.9257 19.2002 24.0002 18.1257 24.0002 16.8002V16.0014C24.0002 14.6759 22.9257 13.6014 21.6002 13.6014H18.4225C17.9807 13.6014 17.6225 13.2432 17.6225 12.8014V12.0002C17.6225 11.5584 17.9807 11.2002 18.4225 11.2002H22.424C22.5108 11.5481 22.8254 11.8059 23.2002 11.8059C23.642 11.8059 24.0002 11.4477 24.0002 11.0059V10.4002C24.0002 9.95837 23.642 9.6002 23.2002 9.6002Z" fill="#2B67E3"/>
</svg>
