<svg width="40" height="40" viewBox="0 0 40 40" fill="none" xmlns="http://www.w3.org/2000/svg">
<path fill-rule="evenodd" clip-rule="evenodd" d="M3.2002 20.7999H20.8002V10.3999C20.8002 8.8459 21.6864 7.49888 22.9809 6.83661C22.5904 6.56148 22.1142 6.3999 21.6002 6.3999H5.6002C4.27471 6.3999 3.2002 7.47442 3.2002 8.7999V20.7999ZM36.8002 24.7999C36.8002 24.1852 36.5691 23.6244 36.1889 23.1998C36.5691 22.7751 36.8002 22.2144 36.8002 21.5996V19.1999H31.2002C29.8747 19.1999 28.8002 18.1254 28.8002 16.7999V13.5999C28.8002 12.2744 29.8747 11.1999 31.2002 11.1999H35.4751L35.4343 11.0339C35.2011 10.0849 34.4158 9.37211 33.4488 9.23157L25.1454 8.02485C25.0311 8.00824 24.9157 7.9999 24.8002 7.9999C23.4747 7.9999 22.4002 9.07442 22.4002 10.3999V21.5996C22.4002 21.8802 22.4484 22.1496 22.5369 22.3999H5.6002C4.27471 22.3999 3.2002 23.4744 3.2002 24.7999V26.3999C3.2002 27.7254 4.27471 28.7999 5.6002 28.7999H6.45691C6.84509 26.0861 9.17902 23.9999 12.0002 23.9999C14.8214 23.9999 17.1553 26.0861 17.5435 28.7999H24.0569C24.4451 26.0861 26.779 23.9999 29.6002 23.9999C32.3825 23.9999 34.6909 26.029 35.1263 28.6881C36.0969 28.3804 36.8002 27.4723 36.8002 26.3999V24.7999ZM36.7308 16.3099L35.8683 12.7999H31.2002C30.7584 12.7999 30.4002 13.1581 30.4002 13.5999V16.7999C30.4002 17.2417 30.7584 17.5999 31.2002 17.5999H36.8002V16.8826C36.8002 16.6896 36.7769 16.4973 36.7308 16.3099ZM16.0002 29.5999C16.0002 31.809 14.2093 33.5999 12.0002 33.5999C9.79106 33.5999 8.0002 31.809 8.0002 29.5999C8.0002 27.3908 9.79106 25.5999 12.0002 25.5999C14.2093 25.5999 16.0002 27.3908 16.0002 29.5999ZM33.6002 29.5999C33.6002 31.809 31.8093 33.5999 29.6002 33.5999C27.3911 33.5999 25.6002 31.809 25.6002 29.5999C25.6002 27.3908 27.3911 25.5999 29.6002 25.5999C31.8093 25.5999 33.6002 27.3908 33.6002 29.5999Z" fill="#2B67E3"/>
</svg>
