<svg width="20" height="20" viewBox="0 0 20 20" fill="none" xmlns="http://www.w3.org/2000/svg">
<path fill-rule="evenodd" clip-rule="evenodd" d="M18.3957 8.22918C18.4335 7.1188 18.1946 6.01673 17.7013 5.0253C17.3666 4.6185 16.902 4.34397 16.3886 4.24955C14.2652 4.05369 12.1329 3.97341 10.001 4.00906C7.87691 3.97179 5.75233 4.04948 3.63633 4.24179C3.21798 4.31915 2.83083 4.51861 2.52212 4.81585C1.83528 5.45973 1.75897 6.5613 1.68265 7.49221C1.57193 9.16595 1.57193 10.8454 1.68265 12.5191C1.70473 13.0431 1.78148 13.5631 1.9116 14.0706C2.00362 14.4624 2.18979 14.8249 2.45344 15.1256C2.76425 15.4386 3.16041 15.6494 3.59054 15.7307C5.23584 15.9372 6.89364 16.0227 8.55104 15.9867C11.2221 16.0255 13.565 15.9867 16.3352 15.7695C16.7759 15.6932 17.1832 15.4821 17.5028 15.1644C17.7165 14.9472 17.8761 14.6812 17.9684 14.3887C18.2413 13.5374 18.3754 12.6464 18.3652 11.7511C18.3957 11.3167 18.3957 8.69463 18.3957 8.22918ZM8.27632 12.2166V7.41463L12.7942 9.82723C11.5274 10.5409 9.85605 11.3477 8.27632 12.2166Z" fill="#919EAB"/>
</svg>
